<svg width="1394" height="426" viewBox="0 0 1394 426" fill="none" xmlns="http://www.w3.org/2000/svg">
<rect width="1394" height="426" fill="#071C2C"/>
<g clip-path="url(#clip0_569_16)">
<rect x="80" y="93" width="240" height="240" rx="40" fill="#E73C34"/>
<path d="M320.012 232.465L320 294.5C320 306.215 321.141 313.011 310.703 323.576C300.461 333.942 288.932 332.846 278.805 333C284.245 331.651 288.687 327.763 289.994 322.545C290.033 322.376 290.072 322.207 290.11 322.039C290.11 322.011 290.13 321.973 290.139 321.945C290.207 321.683 290.265 321.402 290.323 321.121C290.401 320.755 290.488 320.399 290.555 320.024C290.633 319.64 290.701 319.256 290.768 318.863C290.836 318.488 290.904 318.123 290.962 317.748C291.02 317.354 291.068 316.961 291.127 316.567C291.185 316.183 291.223 315.809 291.272 315.415C291.31 315.022 291.349 314.619 291.378 314.216C291.407 313.822 291.456 313.438 291.475 313.035C291.504 312.623 291.514 312.22 291.533 311.799C291.543 311.396 291.562 311.002 291.572 310.6C291.572 310.187 291.572 309.766 291.572 309.344C291.572 308.932 291.572 308.529 291.572 308.107C291.562 307.686 291.533 307.255 291.514 306.833C291.494 306.412 291.475 305.99 291.436 305.559C291.407 305.128 291.359 304.697 291.31 304.257C291.272 303.835 291.233 303.404 291.185 302.973C291.127 302.533 291.059 302.093 291.001 301.643C290.943 301.203 290.875 300.772 290.807 300.331C290.73 299.882 290.643 299.423 290.555 298.973C290.478 298.533 290.391 298.092 290.304 297.643C290.207 297.184 290.091 296.715 289.975 296.256C289.868 295.806 289.762 295.357 289.646 294.907C289.52 294.439 289.384 293.961 289.249 293.492C289.123 293.033 288.997 292.584 288.852 292.115C288.707 291.647 288.533 291.169 288.378 290.691C288.213 290.223 288.068 289.754 287.904 289.286C287.729 288.799 287.536 288.302 287.342 287.815C287.158 287.347 286.984 286.869 286.8 286.4C286.597 285.904 286.374 285.398 286.161 284.901C285.948 284.414 285.755 283.936 285.532 283.458C285.31 282.953 285.058 282.456 284.816 281.95C284.584 281.463 284.351 280.966 284.1 280.47C283.838 279.964 283.558 279.449 283.287 278.933C283.025 278.437 282.774 277.94 282.493 277.444C282.212 276.919 281.893 276.395 281.593 275.879C281.303 275.373 281.022 274.877 280.722 274.362C280.402 273.837 280.054 273.303 279.715 272.769C279.396 272.263 279.086 271.748 278.747 271.242C278.389 270.698 278.002 270.146 277.634 269.602C277.296 269.087 276.957 268.581 276.589 268.066C276.202 267.513 275.776 266.951 275.379 266.398C275.002 265.883 274.634 265.368 274.237 264.843C273.811 264.281 273.366 263.709 272.921 263.147C272.514 262.623 272.117 262.107 271.691 261.583C271.227 261.002 270.724 260.421 270.249 259.84C269.814 259.315 269.388 258.8 268.933 258.276C268.43 257.676 267.888 257.086 267.355 256.486C266.9 255.961 266.455 255.446 265.971 254.922C265.42 254.322 264.839 253.704 264.268 253.095C263.774 252.57 263.3 252.045 262.797 251.521C262.206 250.912 261.587 250.293 260.967 249.675C260.445 249.141 259.941 248.616 259.39 248.073C258.761 247.445 258.083 246.818 257.425 246.19C256.873 245.656 256.331 245.131 255.76 244.588C255.073 243.941 254.337 243.286 253.621 242.63C253.05 242.105 252.489 241.581 251.908 241.056C251.143 240.372 250.34 239.688 249.546 238.995C248.966 238.489 248.404 237.992 247.814 237.477C246.981 236.774 246.12 236.062 245.259 235.36C244.659 234.854 244.078 234.367 243.468 233.861C242.452 233.027 241.387 232.193 240.322 231.359C239.838 230.975 239.384 230.6 238.89 230.216C237.332 228.998 235.715 227.771 234.07 226.534C230.76 224.052 225.785 225.148 224.043 228.736L200.93 276.685L185.511 262.819L190.96 195.44C190.96 195.44 152.41 162.837 161.343 154.621C170.277 146.395 209.515 172.159 209.515 172.159L281.719 153.178L299.566 164.664L251.259 196.845C249.295 198.157 249.788 200.949 252.092 201.642C277.489 209.212 299.712 219.714 318.856 231.931C319.214 232.156 319.592 232.334 319.969 232.465H320.012Z" fill="white"/>
</g>
<path d="M478.72 147.04C478.72 147.893 478.347 148.32 477.6 148.32C476.427 148.32 475.36 146.24 474.4 142.08C472.48 133.867 469.813 128.267 466.4 125.28C462.987 122.293 457.547 120.8 450.08 120.8C447.2 120.8 444.693 120.907 442.56 121.12L442.72 218.4C442.827 221.067 443.573 222.773 444.96 223.52C446.347 224.267 450.08 224.907 456.16 225.44C457.333 225.547 457.92 226.027 457.92 226.88C457.92 227.947 457.067 228.48 455.36 228.48C455.04 228.48 454.24 228.427 452.96 228.32C451.36 228.213 450.027 228.16 448.96 228.16L432.48 227.68L405.28 228.16C403.787 228.16 403.04 227.733 403.04 226.88C403.04 226.24 403.253 225.867 403.68 225.76C404.107 225.653 405.867 225.547 408.96 225.44C414.827 225.227 417.973 223.84 418.4 221.28C418.613 219.893 418.72 209.067 418.72 188.8V121.12C417.547 121.013 416.16 120.96 414.56 120.96C406.027 120.96 399.787 122.56 395.84 125.76C392 128.853 389.493 134.4 388.32 142.4C387.573 147.093 386.613 149.44 385.44 149.44C384.48 149.44 384 148.8 384 147.52C384 146.667 384.213 143.733 384.64 138.72C385.493 128.267 386.027 121.12 386.24 117.28H388.64L400.32 117.12C400.64 117.12 404.32 117.227 411.36 117.44C418.507 117.653 427.573 117.76 438.56 117.76C444.64 117.76 450.08 117.707 454.88 117.6C459.68 117.493 464.053 117.44 468 117.44C471.52 117.44 474.187 117.333 476 117.12C476.32 124.053 477.12 132.907 478.4 143.68C478.613 145.493 478.72 146.613 478.72 147.04ZM571.03 227.52C571.03 228.16 570.55 228.48 569.59 228.48C569.697 228.48 568.63 228.48 566.39 228.48C564.15 228.373 562.283 228.32 560.79 228.32H556.79C547.617 228.32 541.963 228.213 539.83 228H537.27L533.43 228.16C532.043 228.267 531.35 227.893 531.35 227.04C531.35 226.4 531.617 226.08 532.15 226.08L535.83 226.24C538.177 226.347 539.51 225.707 539.83 224.32C540.043 223.467 540.15 218.133 540.15 208.32V184.48C540.15 174.56 539.67 168.693 538.71 166.88C537.323 164.107 534.657 162.72 530.71 162.72C526.55 162.72 523.35 164.587 521.11 168.32C520.043 170.133 519.51 174.027 519.51 180V205.12C519.51 212.907 519.563 217.173 519.67 217.92V219.84L519.51 223.68C519.403 225.28 521.643 226.08 526.23 226.08C527.19 226.08 527.67 226.4 527.67 227.04C527.67 227.787 526.977 228.16 525.59 228.16C525.59 228.16 525.163 228.16 524.31 228.16C523.457 228.053 522.177 228 520.47 228H513.43L504.47 228.16L495.03 228.48H490.23C488.63 228.48 487.83 228.16 487.83 227.52C487.83 227.2 487.937 226.987 488.15 226.88C488.363 226.773 488.843 226.72 489.59 226.72C493.643 226.72 496.043 226.56 496.79 226.24C497.537 225.92 498.017 224.693 498.23 222.56C498.337 221.28 498.39 214.88 498.39 203.36V144.64C498.39 133.12 498.123 126.507 497.59 124.8C497.163 122.987 494.923 122.08 490.87 122.08C487.777 122.08 486.23 121.76 486.23 121.12C486.23 120.48 488.043 120.053 491.67 119.84C499.883 119.307 507.617 117.92 514.87 115.68C516.257 115.253 517.27 115.04 517.91 115.04C518.763 115.04 519.19 118.027 519.19 124V127.2C519.19 129.333 519.19 132.16 519.19 135.68C519.083 139.093 519.03 141.44 519.03 142.72V168.16C522.123 163.787 525.11 160.8 527.99 159.2C530.977 157.6 534.977 156.8 539.99 156.8C550.55 156.8 557.163 161.067 559.83 169.6C560.79 172.373 561.27 176.853 561.27 183.04V220.32C561.27 223.093 561.697 224.8 562.55 225.44C563.51 226.08 565.803 226.4 569.43 226.4C570.497 226.4 571.03 226.773 571.03 227.52ZM647.851 208.48C647.851 210.827 646.465 213.92 643.691 217.76C637.718 225.973 629.931 230.08 620.331 230.08C609.558 230.08 600.705 226.667 593.771 219.84C586.838 213.013 583.371 204.267 583.371 193.6C583.371 183.147 586.731 174.453 593.451 167.52C600.171 160.48 608.545 156.96 618.571 156.96C625.398 156.96 631.211 158.453 636.011 161.44C641.345 164.747 644.811 169.493 646.411 175.68C646.838 177.6 647.158 179.893 647.371 182.56C644.918 182.773 635.051 182.933 617.771 183.04C615.105 183.04 611.745 183.147 607.691 183.36C607.371 187.2 607.211 190.453 607.211 193.12C607.211 205.6 609.825 214.453 615.051 219.68C618.145 222.773 621.931 224.32 626.411 224.32C630.145 224.32 633.718 223.04 637.131 220.48C640.651 217.92 643.318 214.613 645.131 210.56C645.985 208.533 646.678 207.52 647.211 207.52C647.638 207.52 647.851 207.84 647.851 208.48ZM627.691 180.64C627.798 172.427 627.211 166.72 625.931 163.52C624.651 160.32 622.411 158.72 619.211 158.72C612.705 158.72 608.971 166.027 608.011 180.64C610.251 180.533 614.945 180.48 622.091 180.48C624.225 180.48 626.091 180.533 627.691 180.64ZM765.579 196.48C765.579 206.187 762.112 214.24 755.179 220.64C748.352 226.933 739.605 230.08 728.939 230.08C722.432 230.08 713.472 227.893 702.059 223.52C701.205 223.2 700.459 223.04 699.819 223.04C698.005 223.04 696.619 224.96 695.659 228.8C695.339 229.973 694.912 230.56 694.379 230.56C693.525 230.56 693.099 229.813 693.099 228.32C693.099 226.933 693.365 224.48 693.899 220.96C694.325 218.08 694.539 214.72 694.539 210.88C694.539 207.787 694.485 205.333 694.379 203.52C694.165 199.893 694.059 197.76 694.059 197.12C694.059 195.413 694.592 194.56 695.659 194.56C696.725 194.56 697.685 196.853 698.539 201.44C700.032 209.333 703.392 215.467 708.619 219.84C714.272 224.533 720.352 226.88 726.859 226.88C732.619 226.88 737.472 225.067 741.419 221.44C745.365 217.813 747.339 213.387 747.339 208.16C747.339 203.68 746.059 200.107 743.499 197.44C741.579 195.52 735.392 191.733 724.939 186.08C713.312 179.893 705.419 173.707 701.259 167.52C697.419 161.867 695.499 155.147 695.499 147.36C695.499 138.187 698.752 130.613 705.259 124.64C711.765 118.56 719.979 115.52 729.899 115.52C735.232 115.52 740.939 116.8 747.019 119.36C749.045 120.213 750.485 120.64 751.339 120.64C752.939 120.64 754.005 119.253 754.539 116.48C754.752 115.52 755.232 115.04 755.979 115.04C757.045 115.04 757.579 115.733 757.579 117.12C757.579 117.653 757.472 119.147 757.259 121.6C757.045 124.053 756.939 126.08 756.939 127.68C756.939 133.227 757.152 137.92 757.579 141.76C757.685 142.08 757.739 142.507 757.739 143.04C757.739 144 757.312 144.48 756.459 144.48C755.499 144.48 754.539 142.773 753.579 139.36C752.619 135.947 750.912 132.587 748.459 129.28C746.112 125.867 743.712 123.413 741.259 121.92C738.059 120 734.325 119.04 730.059 119.04C724.085 119.04 719.339 120.48 715.819 123.36C712.299 126.24 710.539 130.187 710.539 135.2C710.539 139.573 712.192 143.467 715.499 146.88C718.805 150.187 725.152 154.453 734.539 159.68C746.059 166.08 753.685 171.2 757.419 175.04C762.859 180.693 765.579 187.84 765.579 196.48ZM866.394 227.04C866.394 227.787 864.42 228.16 860.474 228.16H857.754C855.727 228.16 852.954 228.107 849.434 228C846.02 227.893 842.714 227.84 839.514 227.84C835.567 227.84 832.58 227.893 830.554 228C828.527 228.107 827.087 228.16 826.234 228.16C824.74 228.16 823.994 227.787 823.994 227.04C823.994 226.293 825.434 225.867 828.314 225.76C830.127 225.653 831.034 225.067 831.034 224C831.034 222.933 828.794 218.773 824.314 211.52C823.034 209.6 821.167 206.613 818.714 202.56C817.007 199.573 814.554 195.68 811.354 190.88V214.56C811.354 220.213 811.514 223.52 811.834 224.48C812.26 225.44 813.487 225.92 815.514 225.92C816.154 225.92 816.687 225.867 817.114 225.76H818.394C819.46 225.76 819.994 226.187 819.994 227.04C819.994 227.893 819.407 228.32 818.234 228.32H817.594L813.434 228.16H808.154L798.234 228H782.714C782.18 228.107 781.594 228.16 780.954 228.16C779.78 228.16 779.194 227.787 779.194 227.04C779.194 226.293 780.58 225.867 783.354 225.76C786.874 225.653 788.847 225.333 789.274 224.8C789.807 224.267 790.074 221.6 790.074 216.8L789.914 132.48C789.914 128.32 789.434 125.76 788.474 124.8C787.62 123.84 785.22 123.413 781.274 123.52C779.247 123.52 778.234 123.147 778.234 122.4C778.234 121.76 778.447 121.387 778.874 121.28C779.3 121.173 780.847 121.067 783.514 120.96C794.287 120.533 801.86 119.147 806.234 116.8C807.727 115.947 809.007 115.467 810.074 115.36C810.5 116.853 810.767 119.733 810.874 124L811.194 141.12C811.3 146.88 811.354 154.933 811.354 165.28V188.64C813.06 187.253 815.834 184.427 819.674 180.16C821.274 178.347 823.674 175.627 826.874 172C831.994 166.24 834.554 163.147 834.554 162.72C834.554 162.187 834.234 161.867 833.594 161.76C832.954 161.653 830.82 161.547 827.194 161.44C824.74 161.44 823.514 160.96 823.514 160C823.514 159.147 824.154 158.72 825.434 158.72L837.594 159.04L850.074 158.72C851.994 158.72 852.954 159.04 852.954 159.68C852.954 160.32 850.767 160.747 846.394 160.96C843.514 161.067 841.167 162.027 839.354 163.84C836.047 167.04 831.834 171.52 826.714 177.28L845.114 205.12C846.074 206.72 847.62 209.12 849.754 212.32C850.074 212.747 850.874 213.92 852.154 215.84L854.874 219.68L856.154 221.6C857.327 223.413 858.287 224.587 859.034 225.12C859.78 225.547 861.167 225.76 863.194 225.76C865.327 225.76 866.394 226.187 866.394 227.04ZM939.77 159.84C939.77 160.587 939.557 161.067 939.13 161.28C938.703 161.387 937.21 161.44 934.65 161.44C931.77 161.44 930.063 161.6 929.53 161.92L928.57 163.68L926.65 169.28C925.797 171.84 923.877 177.013 920.89 184.8C920.677 185.44 918.33 192 913.85 204.48C903.29 234.027 896.463 251.893 893.37 258.08C889.53 265.76 884.623 269.6 878.65 269.6C875.237 269.6 872.463 268.587 870.33 266.56C868.303 264.533 867.29 261.867 867.29 258.56C867.29 253.333 870.17 250.72 875.93 250.72C877.85 250.72 879.397 251.36 880.57 252.64C881.103 253.173 882.01 254.667 883.29 257.12C884.037 258.187 885.05 258.72 886.33 258.72C888.463 258.72 890.49 256.907 892.41 253.28C894.437 249.76 897.157 243.04 900.57 233.12C899.717 231.413 898.063 227.627 895.61 221.76C892.41 213.653 888.143 203.04 882.81 189.92C881.53 186.72 878.65 179.733 874.17 168.96C872.677 165.333 871.397 163.2 870.33 162.56C869.263 161.813 866.81 161.387 862.97 161.28C861.69 161.28 861.05 160.853 861.05 160C861.05 159.147 861.69 158.72 862.97 158.72H865.85C867.45 158.72 869.85 158.773 873.05 158.88C876.25 158.987 878.703 159.04 880.41 159.04L899.93 158.88C900.57 158.773 901.317 158.72 902.17 158.72C903.343 158.72 903.93 159.093 903.93 159.84C903.93 160.8 902.33 161.227 899.13 161.12C895.93 161.013 894.33 161.707 894.33 163.2C894.33 164.267 894.757 165.92 895.61 168.16C896.783 171.147 897.423 172.907 897.53 173.44C902.757 187.947 907.023 198.987 910.33 206.56C920.25 181.28 925.21 166.88 925.21 163.36C925.21 162.187 923.983 161.6 921.53 161.6C916.41 161.6 913.85 161.12 913.85 160.16C913.85 159.2 914.49 158.72 915.77 158.72C916.837 158.72 917.903 158.773 918.97 158.88C920.997 159.093 923.77 159.2 927.29 159.2C927.717 159.2 929.263 159.147 931.93 159.04C934.703 158.827 936.517 158.72 937.37 158.72H938.33C939.29 158.72 939.77 159.093 939.77 159.84ZM994.423 217.76C994.423 218.933 993.409 220.48 991.383 222.4C986.156 227.413 978.956 229.92 969.783 229.92C961.356 229.92 955.809 227.84 953.143 223.68C952.076 222.08 951.436 220.587 951.223 219.2C951.116 217.813 951.063 214.24 951.063 208.48V200.8C951.063 198.773 951.063 196.64 951.063 194.4C950.956 192.16 950.903 191.04 950.903 191.04V176.64L950.743 165.12C950.743 163.2 950.476 162.08 949.943 161.76C949.409 161.44 947.809 161.28 945.143 161.28C941.943 161.28 940.343 160.853 940.343 160C940.343 159.36 940.929 158.933 942.103 158.72C952.129 158.4 960.769 152.96 968.023 142.4C968.983 140.907 969.729 140.16 970.263 140.16C970.903 140.16 971.223 140.907 971.223 142.4C971.116 151.573 971.489 156.587 972.343 157.44C973.196 158.293 975.809 158.72 980.182 158.72C984.663 158.72 987.809 158.507 989.623 158.08C989.836 157.973 990.049 157.92 990.263 157.92C990.689 157.92 990.903 158.24 990.903 158.88C990.903 160.373 990.209 161.12 988.823 161.12C984.449 161.227 979.596 161.28 974.263 161.28C973.836 161.28 973.089 161.227 972.023 161.12V164.48C972.023 193.067 972.396 209.813 973.143 214.72C974.103 220.907 977.089 224 982.103 224C984.343 224 987.223 222.4 990.743 219.2C992.449 217.707 993.516 216.96 993.943 216.96C994.263 216.96 994.423 217.227 994.423 217.76ZM1060.57 168.64C1060.57 171.733 1059.66 174.293 1057.85 176.32C1056.03 178.24 1053.69 179.2 1050.81 179.2C1045.05 179.2 1042.17 176.533 1042.17 171.2C1042.17 169.387 1042.86 167.573 1044.25 165.76C1044.57 165.333 1044.73 164.96 1044.73 164.64C1044.73 163.68 1044.03 163.2 1042.65 163.2C1039.02 163.2 1036.25 166.027 1034.33 171.68C1033.26 174.88 1032.73 182.72 1032.73 195.2V206.88L1032.89 220.96C1032.89 223.84 1034.33 225.387 1037.21 225.6C1038.91 225.707 1040.94 225.76 1043.29 225.76C1044.46 225.867 1045.05 226.24 1045.05 226.88C1045.05 227.733 1044.57 228.16 1043.61 228.16H1040.41C1039.45 228.053 1034.81 228 1026.49 228C1026.91 228 1024.51 228.053 1019.29 228.16L1011.45 228.32H1005.37C1004.3 228.427 1003.07 228.48 1001.69 228.48C1000.51 228.48 999.928 228.107 999.928 227.36C999.928 226.613 1000.67 226.24 1002.17 226.24C1006.54 226.133 1009.15 225.707 1010.01 224.96C1010.97 224.107 1011.45 221.707 1011.45 217.76L1011.29 174.56C1011.29 170.933 1010.75 168.427 1009.69 167.04C1008.73 165.653 1006.49 164.8 1002.97 164.48C1000.19 164.267 998.594 164.107 998.168 164C997.848 163.893 997.688 163.52 997.688 162.88C997.688 162.24 998.114 161.92 998.968 161.92C999.928 161.92 1000.83 161.973 1001.69 162.08H1004.89C1013.1 162.08 1021.95 160.373 1031.45 156.96C1031.98 159.093 1032.25 161.547 1032.25 164.32V171.04C1034.27 165.813 1036.46 162.133 1038.81 160C1041.26 157.867 1044.41 156.8 1048.25 156.8C1051.87 156.8 1054.81 157.92 1057.05 160.16C1059.39 162.4 1060.57 165.227 1060.57 168.64ZM1143.83 219.52C1143.83 220.373 1142.98 221.547 1141.27 223.04C1136.69 227.2 1131.03 229.28 1124.31 229.28C1119.94 229.28 1116.74 228.373 1114.71 226.56C1112.79 224.747 1111.51 221.493 1110.87 216.8C1106.07 225.547 1099.51 229.92 1091.19 229.92C1086.61 229.92 1082.87 228.48 1079.99 225.6C1077.22 222.72 1075.83 218.987 1075.83 214.4C1075.83 200.96 1087.35 193.013 1110.39 190.56V187.2C1110.39 176.533 1110.02 169.973 1109.27 167.52L1109.11 166.72C1107.62 161.387 1103.83 158.72 1097.75 158.72C1094.23 158.72 1091.41 159.733 1089.27 161.76C1087.14 163.787 1086.07 165.76 1086.07 167.68C1086.07 168.747 1087.35 169.387 1089.91 169.6C1093.75 169.92 1095.67 172.267 1095.67 176.64C1095.67 178.987 1094.87 180.96 1093.27 182.56C1091.78 184.053 1089.81 184.8 1087.35 184.8C1084.26 184.8 1081.7 183.893 1079.67 182.08C1077.75 180.16 1076.79 177.76 1076.79 174.88C1076.79 170.293 1079.09 166.133 1083.67 162.4C1088.26 158.667 1094.29 156.8 1101.75 156.8C1112.85 156.8 1120.58 158.773 1124.95 162.72C1128.47 166.027 1130.23 171.787 1130.23 180V207.36C1130.23 212.693 1130.29 215.787 1130.39 216.64C1130.93 221.12 1132.47 223.36 1135.03 223.36C1136.85 223.36 1139.09 222.08 1141.75 219.52C1142.29 218.987 1142.71 218.72 1143.03 218.72C1143.57 218.72 1143.83 218.987 1143.83 219.52ZM1110.39 200.48V192.64C1100.05 194.667 1094.87 200.533 1094.87 210.24C1094.87 217.707 1097.43 221.44 1102.55 221.44C1105.43 221.44 1107.46 219.84 1108.63 216.64C1109.81 213.44 1110.39 208.053 1110.39 200.48ZM1183.72 125.6C1183.72 128.587 1182.71 131.147 1180.68 133.28C1178.66 135.413 1176.2 136.48 1173.32 136.48C1170.34 136.48 1167.83 135.467 1165.8 133.44C1163.78 131.413 1162.76 128.853 1162.76 125.76C1162.76 122.773 1163.78 120.32 1165.8 118.4C1167.83 116.48 1170.44 115.52 1173.64 115.52C1176.52 115.52 1178.92 116.48 1180.84 118.4C1182.76 120.32 1183.72 122.72 1183.72 125.6ZM1195.24 227.04C1195.24 227.787 1194.76 228.16 1193.8 228.16L1172.52 227.84L1157.16 228.16C1156.52 228.16 1155.72 228.213 1154.76 228.32C1153.91 228.32 1153.43 228.32 1153.32 228.32C1152.04 228.32 1151.4 227.893 1151.4 227.04C1151.4 226.4 1152.63 226.027 1155.08 225.92C1158.71 225.813 1160.84 225.44 1161.48 224.8C1162.12 224.053 1162.44 221.92 1162.44 218.4V172.48C1162.44 168.427 1162.07 166.027 1161.32 165.28C1160.68 164.427 1158.6 164 1155.08 164C1152.84 164 1151.51 163.947 1151.08 163.84C1150.76 163.733 1150.6 163.36 1150.6 162.72C1150.6 161.973 1151.4 161.6 1153 161.6C1164.74 161.493 1174.76 159.68 1183.08 156.16C1183.3 157.44 1183.56 160.96 1183.88 166.72L1184.04 187.04V217.12C1184.04 221.493 1184.42 224.053 1185.16 224.8C1186.02 225.547 1188.79 225.92 1193.48 225.92C1194.66 225.92 1195.24 226.293 1195.24 227.04ZM1248.85 226.88C1248.85 227.733 1246.82 228.16 1242.77 228.16C1241.81 228.16 1238.82 228.053 1233.81 227.84C1231.25 227.733 1228.74 227.68 1226.29 227.68C1223.94 227.68 1219.57 227.787 1213.17 228L1208.37 228.16C1206.02 228.267 1204.85 227.893 1204.85 227.04C1204.85 226.187 1206.07 225.813 1208.53 225.92C1212.26 226.027 1214.39 225.653 1214.93 224.8C1215.57 223.947 1215.89 220.747 1215.89 215.2V130.88C1215.89 127.253 1215.51 125.12 1214.77 124.48C1214.02 123.733 1211.83 123.36 1208.21 123.36C1205.54 123.36 1204.21 122.987 1204.21 122.24C1204.21 121.387 1205.59 120.907 1208.37 120.8C1220.31 120.373 1230.07 118.56 1237.65 115.36C1237.54 118.56 1237.49 137.28 1237.49 171.52V211.36C1237.49 218.613 1237.65 222.88 1237.97 224.16C1238.39 225.333 1239.73 225.867 1241.97 225.76L1246.77 225.6C1248.15 225.6 1248.85 226.027 1248.85 226.88ZM1311.12 205.92C1311.12 213.067 1308.94 218.88 1304.56 223.36C1300.19 227.733 1294.54 229.92 1287.6 229.92C1284.19 229.92 1280.14 229.067 1275.44 227.36C1271.6 225.973 1269.1 225.28 1267.92 225.28C1265.9 225.28 1264.56 226.027 1263.92 227.52C1263.28 229.013 1262.8 229.76 1262.48 229.76C1261.84 229.76 1261.52 229.387 1261.52 228.64C1261.52 228 1261.63 226.987 1261.84 225.6C1262.16 223.573 1262.32 220.053 1262.32 215.04C1262.32 214.827 1262.32 214.293 1262.32 213.44C1262.22 212.587 1262.16 211.413 1262.16 209.92V207.2C1262.16 206.027 1262.43 205.44 1262.96 205.44C1263.6 205.44 1264.08 206.24 1264.4 207.84C1265.36 213.493 1268.08 218.24 1272.56 222.08C1277.04 225.813 1282.06 227.68 1287.6 227.68C1291.12 227.68 1293.95 226.613 1296.08 224.48C1298.32 222.24 1299.44 219.36 1299.44 215.84C1299.44 213.067 1298.43 210.72 1296.4 208.8C1294.91 207.413 1290.91 205.653 1284.4 203.52C1276.4 200.853 1270.59 197.653 1266.96 193.92C1263.44 190.08 1261.68 185.227 1261.68 179.36C1261.68 173.067 1263.82 167.733 1268.08 163.36C1272.35 158.987 1277.58 156.8 1283.76 156.8C1286.11 156.8 1290.16 157.547 1295.92 159.04C1296.78 159.253 1297.42 159.36 1297.84 159.36C1300.19 159.36 1301.95 157.92 1303.12 155.04C1303.34 154.507 1303.6 154.24 1303.92 154.24C1304.67 154.24 1305.04 154.88 1305.04 156.16C1305.04 156.16 1304.99 157.173 1304.88 159.2C1304.78 159.627 1304.72 160.373 1304.72 161.44C1304.72 165.813 1304.99 170.293 1305.52 174.88V175.68C1305.52 176.533 1305.2 176.96 1304.56 176.96C1304.03 176.96 1303.6 176.48 1303.28 175.52C1300.19 164.64 1293.9 159.2 1284.4 159.2C1280.88 159.2 1277.95 160.16 1275.6 162.08C1273.36 164 1272.24 166.453 1272.24 169.44C1272.24 172.213 1273.2 174.4 1275.12 176C1277.04 177.6 1280.78 179.413 1286.32 181.44C1296.03 184.853 1302.59 188.267 1306 191.68C1309.42 195.093 1311.12 199.84 1311.12 205.92Z" fill="white"/>
<path d="M729.768 334.48C726.376 334.48 723.48 333.872 721.08 332.656C718.68 331.44 716.84 329.76 715.56 327.616C714.312 325.44 713.688 322.944 713.688 320.128C713.688 317.28 714.168 314.64 715.128 312.208C716.088 309.744 717.48 307.6 719.304 305.776C721.128 303.952 723.304 302.528 725.832 301.504C728.36 300.448 731.176 299.92 734.28 299.92C737.64 299.92 740.52 300.528 742.92 301.744C745.32 302.96 747.16 304.656 748.44 306.832C749.72 308.976 750.36 311.456 750.36 314.272C750.36 317.12 749.864 319.776 748.872 322.24C747.912 324.672 746.52 326.8 744.696 328.624C742.872 330.448 740.696 331.888 738.168 332.944C735.672 333.968 732.872 334.48 729.768 334.48ZM730.296 329.008C732.408 329.008 734.312 328.64 736.008 327.904C737.704 327.136 739.144 326.096 740.328 324.784C741.544 323.44 742.472 321.904 743.112 320.176C743.752 318.416 744.072 316.576 744.072 314.656C744.072 312.832 743.672 311.216 742.872 309.808C742.072 308.4 740.904 307.312 739.368 306.544C737.832 305.776 735.944 305.392 733.704 305.392C731.624 305.392 729.72 305.776 727.992 306.544C726.296 307.28 724.84 308.32 723.624 309.664C722.44 310.976 721.528 312.512 720.888 314.272C720.28 316 719.976 317.824 719.976 319.744C719.976 321.568 720.36 323.184 721.128 324.592C721.928 326 723.096 327.088 724.632 327.856C726.168 328.624 728.056 329.008 730.296 329.008ZM774.254 308.08C776.462 308.08 778.334 308.528 779.87 309.424C781.406 310.32 782.478 311.648 783.086 313.408C783.726 315.136 783.79 317.264 783.278 319.792L780.446 334H774.446L777.23 319.936C777.646 317.856 777.454 316.24 776.654 315.088C775.854 313.904 774.398 313.312 772.286 313.312C770.078 313.312 768.254 313.92 766.814 315.136C765.374 316.352 764.398 318.208 763.886 320.704L761.198 334H755.198L760.286 308.368H765.998L764.558 315.664L763.598 313.36C764.814 311.536 766.334 310.208 768.158 309.376C770.014 308.512 772.046 308.08 774.254 308.08ZM790.458 334L797.562 298.384H803.562L800.394 314.32L798.522 320.992L797.562 327.04L796.17 334H790.458ZM805.962 334.336C803.85 334.336 802.026 333.968 800.49 333.232C798.954 332.464 797.77 331.344 796.938 329.872C796.106 328.4 795.69 326.576 795.69 324.4C795.69 322 795.978 319.808 796.554 317.824C797.162 315.808 798.042 314.08 799.194 312.64C800.378 311.168 801.786 310.048 803.418 309.28C805.082 308.48 806.97 308.08 809.082 308.08C811.194 308.08 813.098 308.528 814.794 309.424C816.49 310.288 817.834 311.568 818.826 313.264C819.85 314.928 820.362 316.944 820.362 319.312C820.362 321.488 819.994 323.488 819.258 325.312C818.554 327.136 817.546 328.72 816.234 330.064C814.922 331.408 813.386 332.464 811.626 333.232C809.898 333.968 808.01 334.336 805.962 334.336ZM805.482 329.2C807.21 329.2 808.73 328.8 810.042 328C811.354 327.168 812.394 326.032 813.162 324.592C813.93 323.152 814.314 321.488 814.314 319.6C814.314 317.616 813.722 316.048 812.538 314.896C811.354 313.744 809.69 313.168 807.546 313.168C805.85 313.168 804.33 313.584 802.986 314.416C801.674 315.216 800.634 316.336 799.866 317.776C799.098 319.216 798.714 320.88 798.714 322.768C798.714 324.752 799.306 326.32 800.49 327.472C801.674 328.624 803.338 329.2 805.482 329.2ZM838.436 334.336C835.94 334.336 833.748 333.872 831.86 332.944C830.004 331.984 828.564 330.672 827.54 329.008C826.516 327.312 826.004 325.328 826.004 323.056C826.004 320.176 826.66 317.616 827.972 315.376C829.284 313.104 831.076 311.328 833.348 310.048C835.652 308.736 838.276 308.08 841.22 308.08C843.748 308.08 845.94 308.544 847.796 309.472C849.684 310.368 851.14 311.664 852.164 313.36C853.188 315.024 853.7 317.008 853.7 319.312C853.7 322.16 853.044 324.72 851.732 326.992C850.42 329.264 848.612 331.056 846.308 332.368C844.036 333.68 841.412 334.336 838.436 334.336ZM838.82 329.2C840.548 329.2 842.068 328.8 843.38 328C844.692 327.168 845.732 326.032 846.5 324.592C847.268 323.152 847.652 321.488 847.652 319.6C847.652 317.616 847.06 316.048 845.876 314.896C844.692 313.744 843.028 313.168 840.884 313.168C839.188 313.168 837.668 313.584 836.324 314.416C835.012 315.216 833.972 316.336 833.204 317.776C832.436 319.216 832.052 320.88 832.052 322.768C832.052 324.784 832.644 326.368 833.828 327.52C835.012 328.64 836.676 329.2 838.82 329.2ZM870.621 334.336C868.541 334.336 866.637 333.888 864.909 332.992C863.213 332.096 861.853 330.816 860.829 329.152C859.837 327.456 859.341 325.424 859.341 323.056C859.341 320.88 859.693 318.88 860.397 317.056C861.133 315.232 862.157 313.648 863.469 312.304C864.781 310.96 866.301 309.92 868.029 309.184C869.789 308.448 871.709 308.08 873.789 308.08C875.933 308.08 877.773 308.464 879.309 309.232C880.877 310 882.061 311.168 882.861 312.736C883.661 314.272 884.029 316.192 883.965 318.496C883.901 321.664 883.325 324.448 882.237 326.848C881.149 329.216 879.629 331.056 877.677 332.368C875.725 333.68 873.373 334.336 870.621 334.336ZM872.157 329.2C873.885 329.2 875.405 328.8 876.717 328C878.029 327.168 879.069 326.032 879.837 324.592C880.605 323.152 880.989 321.488 880.989 319.6C880.989 317.616 880.397 316.048 879.213 314.896C878.029 313.744 876.365 313.168 874.221 313.168C872.525 313.168 871.005 313.584 869.661 314.416C868.349 315.216 867.309 316.336 866.541 317.776C865.773 319.216 865.389 320.88 865.389 322.768C865.389 324.752 865.981 326.32 867.165 327.472C868.349 328.624 870.013 329.2 872.157 329.2ZM878.445 334L879.597 328.144L881.229 321.328L882.045 314.464L883.245 308.368H889.245L884.157 334H878.445ZM894.408 334L899.496 308.368H905.208L903.768 315.664L903.24 313.552C904.424 311.472 905.928 310.048 907.752 309.28C909.576 308.48 911.8 308.08 914.424 308.08L913.32 313.792C913.064 313.728 912.824 313.696 912.6 313.696C912.376 313.664 912.12 313.648 911.832 313.648C909.496 313.648 907.56 314.272 906.024 315.52C904.488 316.736 903.464 318.688 902.952 321.376L900.408 334H894.408ZM928.063 334.336C925.983 334.336 924.079 333.888 922.351 332.992C920.623 332.096 919.263 330.816 918.271 329.152C917.279 327.456 916.783 325.424 916.783 323.056C916.783 320.88 917.135 318.88 917.839 317.056C918.575 315.232 919.599 313.648 920.911 312.304C922.223 310.96 923.743 309.92 925.471 309.184C927.231 308.448 929.135 308.08 931.183 308.08C933.295 308.08 935.119 308.448 936.655 309.184C938.191 309.92 939.375 311.024 940.207 312.496C941.039 313.968 941.455 315.792 941.455 317.968C941.455 320.368 941.151 322.576 940.543 324.592C939.935 326.576 939.055 328.304 937.903 329.776C936.751 331.216 935.343 332.336 933.679 333.136C932.047 333.936 930.175 334.336 928.063 334.336ZM929.599 329.2C931.295 329.2 932.799 328.8 934.111 328C935.455 327.168 936.495 326.032 937.231 324.592C937.999 323.152 938.383 321.488 938.383 319.6C938.383 317.616 937.791 316.048 936.607 314.896C935.455 313.744 933.791 313.168 931.615 313.168C929.951 313.168 928.447 313.584 927.103 314.416C925.759 315.216 924.703 316.336 923.935 317.776C923.199 319.216 922.831 320.88 922.831 322.768C922.831 324.752 923.407 326.32 924.559 327.472C925.743 328.624 927.423 329.2 929.599 329.2ZM935.839 334L937.039 328.144L938.623 321.328L939.439 314.464L942.655 298.384H948.655L941.551 334H935.839ZM976.298 334L978.938 320.608L979.658 324.64L969.866 300.4H976.058L983.882 319.792L980.234 319.84L995.93 300.4H1002.46L983.066 324.688L985.178 320.608L982.49 334H976.298ZM1011.46 334.336C1008.96 334.336 1006.77 333.872 1004.88 332.944C1003.03 331.984 1001.59 330.672 1000.56 329.008C999.541 327.312 999.029 325.328 999.029 323.056C999.029 320.176 999.685 317.616 1001 315.376C1002.31 313.104 1004.1 311.328 1006.37 310.048C1008.68 308.736 1011.3 308.08 1014.24 308.08C1016.77 308.08 1018.96 308.544 1020.82 309.472C1022.71 310.368 1024.16 311.664 1025.19 313.36C1026.21 315.024 1026.72 317.008 1026.72 319.312C1026.72 322.16 1026.07 324.72 1024.76 326.992C1023.44 329.264 1021.64 331.056 1019.33 332.368C1017.06 333.68 1014.44 334.336 1011.46 334.336ZM1011.84 329.2C1013.57 329.2 1015.09 328.8 1016.4 328C1017.72 327.168 1018.76 326.032 1019.52 324.592C1020.29 323.152 1020.68 321.488 1020.68 319.6C1020.68 317.616 1020.08 316.048 1018.9 314.896C1017.72 313.744 1016.05 313.168 1013.91 313.168C1012.21 313.168 1010.69 313.584 1009.35 314.416C1008.04 315.216 1007 316.336 1006.23 317.776C1005.46 319.216 1005.08 320.88 1005.08 322.768C1005.08 324.784 1005.67 326.368 1006.85 327.52C1008.04 328.64 1009.7 329.2 1011.84 329.2ZM1043.12 334.336C1040.97 334.336 1039.13 333.888 1037.6 332.992C1036.09 332.064 1035.02 330.736 1034.38 329.008C1033.74 327.248 1033.68 325.104 1034.19 322.576L1037.02 308.368H1043.02L1040.19 322.432C1039.81 324.512 1040 326.144 1040.77 327.328C1041.57 328.48 1043.01 329.056 1045.09 329.056C1047.23 329.056 1049.02 328.448 1050.46 327.232C1051.93 326.016 1052.91 324.16 1053.39 321.664L1056.08 308.368H1062.03L1056.94 334H1051.23L1052.67 326.704L1053.63 329.008C1052.41 330.832 1050.88 332.176 1049.02 333.04C1047.2 333.904 1045.23 334.336 1043.12 334.336ZM1067.2 334L1072.29 308.368H1078L1076.56 315.664L1076.03 313.552C1077.21 311.472 1078.72 310.048 1080.54 309.28C1082.37 308.48 1084.59 308.08 1087.21 308.08L1086.11 313.792C1085.85 313.728 1085.61 313.696 1085.39 313.696C1085.17 313.664 1084.91 313.648 1084.62 313.648C1082.29 313.648 1080.35 314.272 1078.81 315.52C1077.28 316.736 1076.25 318.688 1075.74 321.376L1073.2 334H1067.2ZM1106 334L1112.72 300.4H1126.3C1129.72 300.4 1132.65 300.976 1135.08 302.128C1137.52 303.248 1139.37 304.848 1140.65 306.928C1141.96 309.008 1142.62 311.456 1142.62 314.272C1142.62 317.248 1142.11 319.952 1141.08 322.384C1140.09 324.816 1138.67 326.896 1136.81 328.624C1134.99 330.32 1132.8 331.648 1130.24 332.608C1127.68 333.536 1124.83 334 1121.69 334H1106ZM1113.29 328.72H1121.88C1124.89 328.72 1127.47 328.112 1129.61 326.896C1131.79 325.648 1133.45 323.968 1134.6 321.856C1135.76 319.744 1136.33 317.344 1136.33 314.656C1136.33 312.832 1135.93 311.248 1135.13 309.904C1134.33 308.56 1133.13 307.52 1131.53 306.784C1129.96 306.048 1128 305.68 1125.63 305.68H1117.9L1113.29 328.72ZM1147.48 334L1152.56 308.368H1158.28L1156.84 315.664L1156.31 313.552C1157.49 311.472 1159 310.048 1160.82 309.28C1162.64 308.48 1164.87 308.08 1167.49 308.08L1166.39 313.792C1166.13 313.728 1165.89 313.696 1165.67 313.696C1165.44 313.664 1165.19 313.648 1164.9 313.648C1162.56 313.648 1160.63 314.272 1159.09 315.52C1157.56 316.736 1156.53 318.688 1156.02 321.376L1153.48 334H1147.48ZM1182.43 334.336C1179.87 334.336 1177.64 333.872 1175.76 332.944C1173.87 331.984 1172.4 330.672 1171.34 329.008C1170.32 327.312 1169.8 325.328 1169.8 323.056C1169.8 320.144 1170.44 317.568 1171.72 315.328C1173 313.088 1174.75 311.328 1176.96 310.048C1179.2 308.736 1181.74 308.08 1184.59 308.08C1186.99 308.08 1189.07 308.528 1190.83 309.424C1192.59 310.32 1193.95 311.616 1194.91 313.312C1195.9 314.976 1196.4 316.976 1196.4 319.312C1196.4 319.92 1196.36 320.544 1196.3 321.184C1196.24 321.824 1196.14 322.416 1196.01 322.96H1174.27L1174.94 318.976H1193.18L1190.73 320.32C1190.99 318.688 1190.88 317.328 1190.4 316.24C1189.92 315.152 1189.15 314.32 1188.09 313.744C1187.04 313.168 1185.77 312.88 1184.3 312.88C1182.54 312.88 1181 313.296 1179.69 314.128C1178.41 314.928 1177.42 316.08 1176.72 317.584C1176.01 319.056 1175.66 320.784 1175.66 322.768C1175.66 324.848 1176.25 326.448 1177.44 327.568C1178.65 328.688 1180.52 329.248 1183.05 329.248C1184.49 329.248 1185.87 329.024 1187.18 328.576C1188.49 328.096 1189.58 327.44 1190.44 326.608L1192.94 330.784C1191.6 331.968 1190 332.864 1188.14 333.472C1186.32 334.048 1184.41 334.336 1182.43 334.336ZM1213.2 334.336C1211.12 334.336 1209.22 333.888 1207.49 332.992C1205.79 332.096 1204.43 330.816 1203.41 329.152C1202.42 327.456 1201.92 325.424 1201.92 323.056C1201.92 320.88 1202.27 318.88 1202.98 317.056C1203.71 315.232 1204.74 313.648 1206.05 312.304C1207.36 310.96 1208.88 309.92 1210.61 309.184C1212.37 308.448 1214.29 308.08 1216.37 308.08C1218.51 308.08 1220.35 308.464 1221.89 309.232C1223.46 310 1224.64 311.168 1225.44 312.736C1226.24 314.272 1226.61 316.192 1226.55 318.496C1226.48 321.664 1225.91 324.448 1224.82 326.848C1223.73 329.216 1222.21 331.056 1220.26 332.368C1218.31 333.68 1215.95 334.336 1213.2 334.336ZM1214.74 329.2C1216.47 329.2 1217.99 328.8 1219.3 328C1220.61 327.168 1221.65 326.032 1222.42 324.592C1223.19 323.152 1223.57 321.488 1223.57 319.6C1223.57 317.616 1222.98 316.048 1221.79 314.896C1220.61 313.744 1218.95 313.168 1216.8 313.168C1215.11 313.168 1213.59 313.584 1212.24 314.416C1210.93 315.216 1209.89 316.336 1209.12 317.776C1208.35 319.216 1207.97 320.88 1207.97 322.768C1207.97 324.752 1208.56 326.32 1209.75 327.472C1210.93 328.624 1212.59 329.2 1214.74 329.2ZM1221.03 334L1222.18 328.144L1223.81 321.328L1224.63 314.464L1225.83 308.368H1231.83L1226.74 334H1221.03ZM1273.76 308.08C1276 308.08 1277.87 308.528 1279.37 309.424C1280.88 310.32 1281.93 311.648 1282.54 313.408C1283.15 315.136 1283.2 317.264 1282.68 319.792L1279.85 334H1273.85L1276.68 319.936C1277.1 317.824 1276.92 316.192 1276.16 315.04C1275.39 313.888 1274 313.312 1271.98 313.312C1269.9 313.312 1268.19 313.92 1266.84 315.136C1265.53 316.32 1264.62 318.16 1264.11 320.656L1261.42 334H1255.42L1258.25 319.936C1258.67 317.824 1258.49 316.192 1257.72 315.04C1256.96 313.888 1255.56 313.312 1253.55 313.312C1251.47 313.312 1249.76 313.92 1248.41 315.136C1247.1 316.32 1246.19 318.176 1245.68 320.704L1242.99 334H1236.99L1242.08 308.368H1247.79L1246.4 315.424L1245.39 313.36C1246.57 311.536 1248.04 310.208 1249.8 309.376C1251.6 308.512 1253.55 308.08 1255.66 308.08C1257.32 308.08 1258.8 308.368 1260.08 308.944C1261.36 309.488 1262.38 310.336 1263.15 311.488C1263.95 312.608 1264.41 314 1264.54 315.664L1261.66 315.04C1262.97 312.736 1264.65 311.008 1266.7 309.856C1268.78 308.672 1271.13 308.08 1273.76 308.08ZM1298.66 334.336C1296.42 334.336 1294.32 334.064 1292.37 333.52C1290.42 332.976 1288.91 332.32 1287.86 331.552L1290.35 326.944C1291.41 327.68 1292.72 328.288 1294.29 328.768C1295.89 329.216 1297.55 329.44 1299.28 329.44C1301.26 329.44 1302.72 329.168 1303.65 328.624C1304.61 328.08 1305.09 327.328 1305.09 326.368C1305.09 325.664 1304.75 325.136 1304.08 324.784C1303.41 324.432 1302.54 324.144 1301.49 323.92C1300.46 323.696 1299.34 323.456 1298.13 323.2C1296.94 322.944 1295.82 322.592 1294.77 322.144C1293.74 321.696 1292.9 321.04 1292.22 320.176C1291.55 319.312 1291.22 318.16 1291.22 316.72C1291.22 314.896 1291.73 313.344 1292.75 312.064C1293.78 310.784 1295.2 309.808 1297.02 309.136C1298.88 308.432 1301.01 308.08 1303.41 308.08C1305.14 308.08 1306.83 308.272 1308.5 308.656C1310.16 309.04 1311.54 309.584 1312.62 310.288L1310.42 314.896C1309.26 314.16 1308.02 313.648 1306.67 313.36C1305.36 313.072 1304.08 312.928 1302.83 312.928C1300.88 312.928 1299.42 313.232 1298.46 313.84C1297.54 314.416 1297.07 315.152 1297.07 316.048C1297.07 316.752 1297.41 317.296 1298.08 317.68C1298.75 318.064 1299.6 318.384 1300.62 318.64C1301.68 318.864 1302.8 319.104 1303.98 319.36C1305.2 319.584 1306.32 319.92 1307.34 320.368C1308.4 320.816 1309.26 321.472 1309.94 322.336C1310.61 323.168 1310.94 324.288 1310.94 325.696C1310.94 327.552 1310.42 329.136 1309.36 330.448C1308.34 331.728 1306.9 332.704 1305.04 333.376C1303.18 334.016 1301.06 334.336 1298.66 334.336Z" fill="white"/>
<defs>
<clipPath id="clip0_569_16">
<rect x="80" y="93" width="240" height="240" rx="40" fill="white"/>
</clipPath>
</defs>
</svg>
