<svg width="240" height="240" viewBox="0 0 240 240" fill="none" xmlns="http://www.w3.org/2000/svg">
<g clip-path="url(#clip0_967_8)">
<rect width="240" height="240" rx="40" fill="#E73C34"/>
<path d="M240.012 139.465L240 201.5C240 213.215 241.141 220.011 230.703 230.576C220.461 240.942 208.932 239.846 198.805 240C204.245 238.651 208.687 234.763 209.994 229.545C210.033 229.376 210.072 229.207 210.11 229.039C210.11 229.011 210.13 228.973 210.139 228.945C210.207 228.683 210.265 228.402 210.323 228.121C210.401 227.755 210.488 227.399 210.555 227.024C210.633 226.64 210.701 226.256 210.768 225.863C210.836 225.488 210.904 225.123 210.962 224.748C211.02 224.354 211.068 223.961 211.127 223.567C211.185 223.183 211.223 222.809 211.272 222.415C211.31 222.022 211.349 221.619 211.378 221.216C211.407 220.822 211.456 220.438 211.475 220.035C211.504 219.623 211.514 219.22 211.533 218.799C211.543 218.396 211.562 218.002 211.572 217.6C211.572 217.187 211.572 216.766 211.572 216.344C211.572 215.932 211.572 215.529 211.572 215.107C211.562 214.686 211.533 214.255 211.514 213.833C211.494 213.412 211.475 212.99 211.436 212.559C211.407 212.128 211.359 211.697 211.31 211.257C211.272 210.835 211.233 210.404 211.185 209.973C211.127 209.533 211.059 209.093 211.001 208.643C210.943 208.203 210.875 207.772 210.807 207.331C210.73 206.882 210.643 206.423 210.555 205.973C210.478 205.533 210.391 205.092 210.304 204.643C210.207 204.184 210.091 203.715 209.975 203.256C209.868 202.806 209.762 202.357 209.646 201.907C209.52 201.439 209.384 200.961 209.249 200.492C209.123 200.033 208.997 199.584 208.852 199.115C208.707 198.647 208.533 198.169 208.378 197.691C208.213 197.223 208.068 196.754 207.904 196.286C207.729 195.799 207.536 195.302 207.342 194.815C207.158 194.347 206.984 193.869 206.8 193.4C206.597 192.904 206.374 192.398 206.161 191.901C205.948 191.414 205.755 190.936 205.532 190.458C205.31 189.953 205.058 189.456 204.816 188.95C204.584 188.463 204.351 187.966 204.1 187.47C203.838 186.964 203.558 186.449 203.287 185.933C203.025 185.437 202.774 184.94 202.493 184.444C202.212 183.919 201.893 183.395 201.593 182.879C201.303 182.373 201.022 181.877 200.722 181.362C200.402 180.837 200.054 180.303 199.715 179.769C199.396 179.263 199.086 178.748 198.747 178.242C198.389 177.698 198.002 177.146 197.634 176.602C197.296 176.087 196.957 175.581 196.589 175.066C196.202 174.513 195.776 173.951 195.379 173.398C195.002 172.883 194.634 172.368 194.237 171.843C193.811 171.281 193.366 170.709 192.921 170.147C192.514 169.623 192.117 169.107 191.691 168.583C191.227 168.002 190.724 167.421 190.249 166.84C189.814 166.315 189.388 165.8 188.933 165.276C188.43 164.676 187.888 164.086 187.355 163.486C186.9 162.961 186.455 162.446 185.971 161.922C185.42 161.322 184.839 160.704 184.268 160.095C183.774 159.57 183.3 159.045 182.797 158.521C182.206 157.912 181.587 157.293 180.967 156.675C180.445 156.141 179.941 155.616 179.39 155.073C178.761 154.445 178.083 153.818 177.425 153.19C176.873 152.656 176.331 152.131 175.76 151.588C175.073 150.941 174.337 150.286 173.621 149.63C173.05 149.105 172.489 148.581 171.908 148.056C171.143 147.372 170.34 146.688 169.546 145.995C168.966 145.489 168.404 144.992 167.814 144.477C166.981 143.774 166.12 143.062 165.259 142.36C164.659 141.854 164.078 141.367 163.468 140.861C162.452 140.027 161.387 139.193 160.322 138.359C159.838 137.975 159.384 137.6 158.89 137.216C157.332 135.998 155.715 134.771 154.07 133.534C150.76 131.052 145.785 132.148 144.043 135.736L120.93 183.685L105.511 169.819L110.96 102.44C110.96 102.44 72.4097 69.8369 81.3433 61.6206C90.2768 53.3949 129.515 79.1587 129.515 79.1587L201.719 60.1778L219.566 71.6638L171.259 103.845C169.295 105.157 169.788 107.949 172.092 108.642C197.489 116.212 219.712 126.714 238.856 138.931C239.214 139.156 239.592 139.334 239.969 139.465H240.012Z" fill="white"/>
</g>
<defs>
<clipPath id="clip0_967_8">
<rect width="240" height="240" rx="40" fill="white"/>
</clipPath>
</defs>
</svg>
